<svg id="Lampe" xmlns="http://www.w3.org/2000/svg" viewBox="0 0 1088.45 538"><defs><style>.cls-1,.cls-2,.cls-31{fill:#fff;}.cls-10,.cls-11,.cls-14,.cls-15,.cls-17,.cls-19,.cls-2,.cls-21,.cls-22,.cls-23,.cls-27,.cls-28,.cls-29,.cls-31,.cls-33,.cls-34,.cls-35,.cls-36,.cls-4,.cls-5,.cls-7,.cls-9{stroke:#1d1d1b;}.cls-10,.cls-11,.cls-14,.cls-15,.cls-17,.cls-19,.cls-2,.cls-21,.cls-25,.cls-28,.cls-29,.cls-31,.cls-33,.cls-34,.cls-35,.cls-37,.cls-7,.cls-9{stroke-miterlimit:10;}.cls-2{stroke-width:1.3px;}.cls-3,.cls-7{fill:#c6c6c5;}.cls-4{fill:#46925b;}.cls-22,.cls-23,.cls-27,.cls-36,.cls-4,.cls-5{stroke-linejoin:round;}.cls-10,.cls-11,.cls-19,.cls-22,.cls-27,.cls-4,.cls-7,.cls-9{stroke-width:2px;}.cls-11,.cls-14,.cls-15,.cls-21,.cls-23,.cls-25,.cls-27,.cls-28,.cls-29,.cls-33,.cls-37,.cls-5,.cls-9{fill:none;}.cls-15,.cls-21,.cls-23,.cls-25,.cls-28,.cls-29,.cls-36,.cls-37,.cls-5,.cls-9{stroke-linecap:round;}.cls-5{stroke-width:2.3px;}.cls-12,.cls-13,.cls-18,.cls-6{fill:#1d1d1b;}.cls-6{opacity:0.07;}.cls-8{fill:#9c9b9b;}.cls-10{fill:#575756;}.cls-13{opacity:0.25;}.cls-14,.cls-15,.cls-17,.cls-35,.cls-36{stroke-width:1.7px;}.cls-16{fill:#b3b3b3;}.cls-17,.cls-19{fill:#fbdccb;}.cls-18,.cls-28{opacity:0.2;}.cls-20{fill:#e20613;opacity:0.15;}.cls-21,.cls-23{stroke-width:2.5px;}.cls-22{fill:#b17f49;}.cls-24{fill:#925f36;opacity:0.5;}.cls-25{stroke:#b17f49;stroke-width:1.4px;}.cls-26{fill:#f3e5dc;}.cls-28,.cls-37{stroke-width:1.5px;}.cls-29{stroke-width:4px;}.cls-30,.cls-35{fill:#d9d9d9;}.cls-31,.cls-33,.cls-34{stroke-width:0.5px;}.cls-32,.cls-34{fill:#b1b1b1;}.cls-36{fill:#e5332a;}.cls-37{stroke:#b1b1b1;}</style></defs><title>der-streber-neu</title><polygon class="cls-1" points="612.51 107.04 881.88 527.96 200.41 529.12 480.06 106.88 612.51 107.04"/><ellipse class="cls-2" cx="547.41" cy="108.5" rx="11.2" ry="9.72"/><path class="cls-3" d="M610,84c0.2,5.62-4.8,9.47-10.48,9.47S588.72,89.58,589,84c0,0,2.65,7.41,10.5,7.33C608.06,91.21,610,84,610,84Z" transform="translate(-52.1 24.15)"/><path class="cls-4" d="M599.64-23l0.06,46a30.47,30.47,0,0,1-11.62,12.33c-8.35,5-31.82,10.9-43.91,22C533.69,67,532.5,82.73,532.5,82.73L664.94,82.9S663.76,66.49,654,57.13s-36.16-16.95-43.38-21.81A36.17,36.17,0,0,1,599.7,23Z" transform="translate(-52.1 24.15)"/><path class="cls-5" d="M599.67-23l0,46a31.25,31.25,0,0,0,11,12.33c8,5.35,33,11.67,45.34,23.18,10.33,9.67,8.61,24.4,8.61,24.4L532.5,82.73A40.71,40.71,0,0,1,545.63,56c9.37-8.4,29.55-13.86,41.5-20.25,9.81-5.24,12.5-12.25,12.5-12.25" transform="translate(-52.1 24.15)"/><path class="cls-6" d="M353.92,503.09s0-10.75,0-22.93c0-11.85,3.22-23,11.58-30.46,11-9.78,22.15-11.26,34.23-11.26,11.08,0,13.84-1.93,15.4-2.91,1.94-1.21,1.76-4.9,0-6s-9.68-5.27-17.67-17.25-9.44-26.88-9.44-26.88-9.93-4.36-9.81-17.67,9.81-14.83,9.81-14.83V325.77c0-10,.76-15.39,3.63-21,3.45-6.72,8.47-11.86,17.61-12.53,0,0-1.43-7.16,7.81-11.56,10.17-4.84,16.34,1.7,16.34,1.7s7.14-5.69,18.4-4c9.29,1.4,12.59,8,12.59,8s7.55-1.78,13.8,2.06a15.93,15.93,0,0,1,7.63,10.89c9,2.78,9,14.16,9,21.55V353s9.2,1.82,9.44,14.77-9.44,17.67-9.44,17.67-1.63,14-9.44,24.7-18.64,17.8-20.94,19.43a3.77,3.77,0,0,0,0,6c1.57,1,4.24,2.91,14.32,2.91,12.26,0,26.06,2.54,35,9.53,9.37,7.29,13.18,23.24,13,38.63-0.12,9.17-.06,16.48-0.06,16.48H353.92Z" transform="translate(-52.1 24.15)"/><path class="cls-6" d="M723,503.14s0-10.29,0-19.69c0-9.15,2.49-17.77,8.94-23.52,8.47-7.55,17.11-8.69,26.44-8.69,8.55,0,16.65-5.46,17.86-6.22,1.5-.93,1.36-3.79,0-4.63a38.15,38.15,0,0,1-11.35-10.13c-0.76-1-4.08,1.69-6.15,2.63-3.63,1.65-9.87,1.6-9.87,1.6a192.57,192.57,0,0,1-9.59-44c-3.1-34.12,5-64.47,22.28-65.57,0,0,7.05-11.7,30.17-14.52,42.41-5.17,60,33.69,62.89,69.94,2.12,26.37-12.69,54.14-12.69,54.14s-4.94-.85-9.45-1.69c-3.29-.62-5.68-3.64-6.91-2.82-0.85.56-2.54,3.07-4.65,5.08a60.12,60.12,0,0,1-6.63,5.34,2.91,2.91,0,0,0,0,4.63c1.21,0.76,9.23,6.22,17,6.22,9.47,0,20.12,2,27.07,7.36,7.24,5.63,10.18,17.95,10,29.83-0.09,7.08,0,14.71,0,14.71H723Z" transform="translate(-52.1 24.15)"/><path class="cls-6" d="M139.19,505.5s0-5.84,0-14.71c0-8.64,2.35-16.78,8.44-22.21,8-7.13,16.15-8.21,25-8.21,8.08,0,13.2-4.62,14.23-6.12s1.28-3.57,0-4.37S179.8,446,174,437.3s-6.88-19.59-6.88-19.59-7.24-3.18-7.15-12.89S167.09,394,167.09,394s-0.26-10.54,0-17.79c0.63-17.69,14.91-36,39.62-35.5,23.84,0.45,38,18.11,38.23,32.94,0.08,5.38,0,20.39,0,20.39s6.71,1.32,6.88,10.77-6.88,12.89-6.88,12.89-2.58,10-8.27,17.79a72.06,72.06,0,0,1-13.88,14.38c-1.68,1.19-.82,3.22,0,4.37,1.13,1.58,5.09,5.12,12.44,5.12,8.94,0,19,1.85,25.55,7,6.83,5.32,9.61,16.94,9.47,28.17-0.09,6.69,0,10.77,0,10.77Z" transform="translate(-52.1 24.15)"/><path class="cls-6" d="M925.67,504.77s-0.11-4.41-.11-13.13c0-8.49,2.31-16.49,8.29-21.83,7.85-7,15.86-8.07,24.51-8.07,7.93,0,13.05-3.31,14.46-4.84a3,3,0,0,0-.43-4.54c-1.26-.78-6.93-3.77-12.66-12.36S953,420.74,953,420.74s-7.11-3.12-7-12.67,7-10.63,7-10.63a49.56,49.56,0,0,1-4.42-18.93c-0.63-18.73,10.75-24.29,19.64-24.53,0,0-.45-4.26,4.82-9.35,9.26-8.95,32.17-8.65,45.2,1.25,9.66,7.34,16,20.44,15.38,31.56-0.75,14.17-4.16,20-4.16,20s6.59,1.3,6.76,10.58-6.76,12.67-6.76,12.67-1.17,10-6.76,17.7-13.35,12.75-15,13.92-1.38,3.15,0,4.6,7.07,4.78,14.29,4.78c8.78,0,18.66,1.82,25.09,6.83,6.71,5.22,9.44,16.65,9.3,27.68-0.09,6.57-.12,9-0.12,9Z" transform="translate(-52.1 24.15)"/><circle class="cls-7" cx="323.9" cy="444.17" r="45.78"/><path class="cls-8" d="M340.71,449.89s36.45,14.6,58.93-11.14c28.12-32.19,2-56.23,2-56.23s13.43,8.72,17.92,25.26c4.09,15.06,1.66,43.26-29.33,55.59C361.77,474.68,340.71,449.89,340.71,449.89Z" transform="translate(-52.1 24.15)"/><path class="cls-9" d="M420.9,450.69a53.11,53.11,0,0,1-16,14.88c-8.71,5-20.74,9.46-33.27,8.2-15.24-1.53-31.85-8.16-42-27.23-12.44-23.35-5.62-45.66,1.08-55.17,9-12.8,16.77-17,16.77-17" transform="translate(-52.1 24.15)"/><path class="cls-10" d="M344,503.19v-3.54c0-2,1.17-2.89,3.56-2.89h54.32a3.24,3.24,0,0,1,3.47,2.94v3.76Z" transform="translate(-52.1 24.15)"/><path class="cls-7" d="M395.39,496.72H355.46c0-6.38,8.93-12.85,20-12.85S395.39,490.34,395.39,496.72Z" transform="translate(-52.1 24.15)"/><rect class="cls-7" x="321.15" y="498.6" width="5.36" height="9.22"/><path class="cls-11" d="M344,387.47s-10.37,26,13.16,50.78,51.52,13.66,51.52,13.66,8.52-28.94-13.93-51S344,387.47,344,387.47Z" transform="translate(-52.1 24.15)"/><line class="cls-11" x1="280.45" y1="400.37" x2="367.53" y2="486.74"/><line class="cls-9" x1="291.77" y1="476.15" x2="356.05" y2="412.04"/><path class="cls-11" d="M303.56,374.08" transform="translate(-52.1 24.15)"/><circle class="cls-11" cx="323.9" cy="444.17" r="45.78"/><circle class="cls-12" cx="281.2" cy="401.13" r="2.76"/><circle class="cls-12" cx="367.52" cy="486.62" r="2.76"/><line class="cls-9" x1="305.14" y1="516.19" x2="323.46" y2="516.24"/><path class="cls-4" d="M539.57,450.14s-4.69-14.76,10.6-25.58C563,415.5,584,415.57,599,416s31.43-2.19,46.6,11.88c11.34,10.52,9.54,18.86,7.49,22.29H539.57Z" transform="translate(-52.1 24.15)"/><path class="cls-4" d="M502.76,504.13V470.87c0-6.21,3.79-15.86,21.84-21.93,8.16-2.74,18.08-4.51,27-6.86S571,436.74,571,436.74l37.42,0.68s7.48-2.16,18.28,2.05,25,6.25,29.25,7.46c9,2.56,30.77,6.74,30.77,23.29,0,15.53,0,33.89,0,33.89H502.76Z" transform="translate(-52.1 24.15)"/><path class="cls-13" d="M625.94,459.72l0.8-15.31,1.56-3.7,19,5.35s-9.32.27-14,3.1C628.41,452.14,625.94,459.72,625.94,459.72Z" transform="translate(-52.1 24.15)"/><path class="cls-13" d="M568.53,457.44l-0.26-15.31-1.38-3.76-18.42,5.36s7.18-.76,13,2.8C566.68,449.73,568.53,457.44,568.53,457.44Z" transform="translate(-52.1 24.15)"/><line class="cls-14" x1="546.13" y1="495.85" x2="546.13" y2="529.37"/><line class="cls-15" x1="607.76" y1="514.06" x2="607.76" y2="529.48"/><line class="cls-15" x1="481.2" y1="514.4" x2="481.2" y2="528.92"/><path class="cls-4" d="M563.14,431a26.87,26.87,0,0,1,3.9,6.78c1.12,3.17,1.54,8,1.7,12.42s0,15.11,10.9,18.84c11.3,3.87,30,2.87,39.05-1.29,7.29-3.33,6.73-10.48,7.13-17.91a33.39,33.39,0,0,1,2.74-12.07c1.6-3.67,3.29-6.6,3.29-6.6" transform="translate(-52.1 24.15)"/><path class="cls-1" d="M618.57,490.34c0,3-1.89,4-1.89,4s-1.89-.82-1.89-4v-29.5c0-1,.28-1.65.95-1.65s1.09,0,1.66,0c0.88,0,1.18.7,1.18,1.9v29.22Z" transform="translate(-52.1 24.15)"/><path class="cls-16" d="M618.58,490.31c0,3.07-1.9,4-1.9,4l0-35.14,0.76,0c0.88,0,1.18.72,1.18,1.93C618.59,467.63,618.58,487.72,618.58,490.31Z" transform="translate(-52.1 24.15)"/><path class="cls-1" d="M580.57,490.4c0,3-1.89,4-1.89,4s-1.89-.82-1.89-4V460.9c0-1,.28-1.65.95-1.65s1.09,0,1.66,0c0.88,0,1.18.7,1.18,1.9V490.4Z" transform="translate(-52.1 24.15)"/><path class="cls-16" d="M580.58,490.37c0,3.07-1.9,4-1.9,4l0-35.14,0.76,0c0.88,0,1.18.72,1.18,1.93C580.59,467.69,580.58,487.79,580.58,490.37Z" transform="translate(-52.1 24.15)"/><path class="cls-17" d="M582.7,413.15h29.73V444.9c0,4.59-3.82,10-14.86,9.86s-14.86-5.1-14.86-10.54V413.15Z" transform="translate(-52.1 24.15)"/><path class="cls-18" d="M583.5,423a82.53,82.53,0,0,0,13.66,1.5,86,86,0,0,0,14.45-1.24v4.58c-2,1.85-7.95,3.24-14,3.24-6.24,0-11.91-1.64-14.07-3.27V423Z" transform="translate(-52.1 24.15)"/><path class="cls-13" d="M613.22,446.19l4.06-19.58s4.43-1.86,6.4-3.79c2.84-2.79,3-4.88,3-4.88l-6.57,2.21L612,422.7Z" transform="translate(-52.1 24.15)"/><path class="cls-13" d="M581.94,445.56l-4.31-18.42a21.93,21.93,0,0,1-5.33-3.26,10.71,10.71,0,0,1-3.55-5.79l5,1.78,8.25,2.56Z" transform="translate(-52.1 24.15)"/><path class="cls-11" d="M538.75,445.25s-0.87-6.87,5-14.62c7.29-9.61,25.13-13.25,25.13-13.25" transform="translate(-52.1 24.15)"/><path class="cls-9" d="M654.31,446.13s-0.69-7.13-4.06-12.62-9.58-9.58-10.81-10.35a45.74,45.74,0,0,0-13-5.49" transform="translate(-52.1 24.15)"/><ellipse class="cls-19" cx="616.73" cy="361.69" rx="18.09" ry="21.56"/><ellipse class="cls-19" cx="474.14" cy="361.69" rx="18.09" ry="21.56"/><ellipse class="cls-20" cx="617.51" cy="362.18" rx="11.33" ry="14.92"/><ellipse class="cls-20" cx="473.33" cy="362.08" rx="11.58" ry="14.83"/><path class="cls-17" d="M673.28,324.54c0,21.65-4.4,45.71-13.43,62-13.75,24.81-37,36.92-62.26,36.92-20.58,0-42.37-9.73-56-27.16-14.06-18-19.67-44-19.67-71.76,0-54.63,33.88-98.92,75.68-98.92S673.28,269.91,673.28,324.54Z" transform="translate(-52.1 24.15)"/><path class="cls-18" d="M526.58,360.42s8.74,26.49,29,41.37,33.75,14.22,44.8,13.87c11.26-.36,33.4-4.6,47.47-21.51a134.83,134.83,0,0,0,20.81-35.3s0.33,19.5-16.37,39.57-34.67,23.11-45.51,24.18-32,3.38-55.11-15.47S526.58,360.42,526.58,360.42Z" transform="translate(-52.1 24.15)"/><path class="cls-21" d="M580,377s2.3,11.35,18.05,11.35,18.05-11.49,18.05-11.49" transform="translate(-52.1 24.15)"/><path class="cls-21" d="M621.64,278.8A49.1,49.1,0,0,1,636.42,276c11.27-.18,17.49,3.16,17.49,3.16" transform="translate(-52.1 24.15)"/><path class="cls-21" d="M542.9,278.81a49.1,49.1,0,0,1,14.77-2.89c11.27-.25,17.51,3,17.51,3" transform="translate(-52.1 24.15)"/><circle class="cls-20" cx="589.17" cy="362.62" r="14.22"/><circle class="cls-20" cx="502.02" cy="362.62" r="14.22"/><path class="cls-11" d="M673.28,324.54c0,21.65-4.4,45.71-13.43,62-13.75,24.81-37,36.92-62.26,36.92-20.58,0-42.37-9.73-56-27.16-14.06-18-19.67-44-19.67-71.76,0-54.63,33.88-98.92,75.68-98.92S673.28,269.91,673.28,324.54Z" transform="translate(-52.1 24.15)"/><path class="cls-22" d="M677.42,318.6a18.47,18.47,0,0,1,5,4.39c0.14-16.44.53-42.77,0.65-56.3,0.18-20.15-13.48-26.16-13.48-26.16s-0.46-13.85-10.54-24.35c-8.53-8.89-19-12.09-37.06-8.66-12.63,2.4-31.28,8.94-41.56-5.85-6.32-9.09-1.65-15.12-1.65-15.12a35,35,0,0,0-28.59,12.6c-10.55,12.49-9.33,29-9.33,29s-12.39,3-20.11,12.28-7.22,18.15-7.3,26.5c0,3.61-.45,36.86-0.64,55.83a44.72,44.72,0,0,1,4.51-4,24.44,24.44,0,0,1,4.85-2.48,89,89,0,0,1,6-25.13c10-25.69,26.47-36.6,26.47-36.6s12.79,10.8,32.3,4.67,22.92-19,22.92-19,27.47,0,46.65,28.1c11.09,16.26,15.08,34.47,16.58,48.87A11.5,11.5,0,0,1,677.42,318.6Z" transform="translate(-52.1 24.15)"/><path class="cls-23" d="M604,302s-0.08,18.65.53,27.64,2.2,20,2.2,20A24.4,24.4,0,0,1,598,351a37.88,37.88,0,0,1-7.46-.79" transform="translate(-52.1 24.15)"/><path class="cls-24" d="M677.51,318.16a18.47,18.47,0,0,1,5,4.39c0.14-16.44-1.94-26.59-1.41-40.12,0.95-24.18-6.7-34.09-14.34-39.11a2.15,2.15,0,0,1-.89-1.31c-0.09-.56-3.56-16.2-11.56-22.63-9.37-7.53-19.7-9.58-36.86-4.15-17.51,5.54-34.9,2.84-41.72-10.07-6.09-11.55,2.35-18.83,2.35-18.83a36,36,0,0,0-26.47,11.6c-7.71,8.18-8.55,16.88-8.12,25.24,0.17,3.25.44,6.53-.56,7.56s-10.7,2.52-19.11,14.73c-8.13,11.79-8.93,31-9,39.35,0,3.61-1.72,18.56-1.9,37.52a44.72,44.72,0,0,1,4.51-4,24.44,24.44,0,0,1,4.85-2.48,89,89,0,0,1,6-25.13c10-25.69,26.47-36.6,26.47-36.6S567.5,265,587,258.82s22.92-19,22.92-19,27.47,0,46.65,28.1c11.09,16.26,15.73,34.2,17.23,48.61A18.82,18.82,0,0,1,677.51,318.16Z" transform="translate(-52.1 24.15)"/><path class="cls-25" d="M590.74,238.57s-12.54-.75-23.25-12.08-11.09-22.81-11.09-22.81" transform="translate(-52.1 24.15)"/><path class="cls-25" d="M582.39,221.45a25.72,25.72,0,0,1-12-10.13,33.4,33.4,0,0,1-4.49-14.66" transform="translate(-52.1 24.15)"/><path class="cls-25" d="M590.51,251.43a47.37,47.37,0,0,1-28.67-12.23C550.64,229,547.41,214,547.41,214" transform="translate(-52.1 24.15)"/><path class="cls-12" d="M520.55,291.71h7.78s7.39-7.47,28.13-8.63a44.27,44.27,0,0,1,24.25,6.13,33.16,33.16,0,0,1,10.73,10.21l12.71,0a33.73,33.73,0,0,1,11.45-10.62c6.76-3.79,16.38-5.55,23.48-5.35,20.6,0.58,27.45,8.17,27.45,8.17l8,0.09v10.34l-4.42,0s-0.54,11.65-4.05,21.06c-3.25,8.69-10.64,16.77-24.52,18.27-12.59,1.37-20.95-2.16-27.77-10.74-8.83-11.12-9.65-25-9.65-25H591.44s-1.92,14-6.65,21.42-12.28,14.66-26,14.66c-14.6,0-23.17-5.42-28.13-15.45-5.59-11.3-5.5-24.26-5.5-24.26h-4.62V291.71Z" transform="translate(-52.1 24.15)"/><path class="cls-26" d="M584.95,308.2c0,14.21-9,29.23-25.87,29.23-20.46,0-28.22-14.36-28.22-28.57s12.54-21.64,26.87-21.64S584.95,294,584.95,308.2Z" transform="translate(-52.1 24.15)"/><path class="cls-26" d="M610.19,309.34c0.53,14.2,10,28.72,26.82,28.27,21.14-.56,28.35-16,27.82-30.17s-14-20.65-28.35-20.05S609.66,295.14,610.19,309.34Z" transform="translate(-52.1 24.15)"/><circle class="cls-12" cx="506.66" cy="334.55" r="6.31"/><circle class="cls-12" cx="585.64" cy="334.54" r="6.31"/><path class="cls-20" d="M641.18,337.33a26.24,26.24,0,0,1-13.84-1.3,14.28,14.28,0,0,1,14-11.71,14.13,14.13,0,0,1,12.84,8.1S650.54,335.88,641.18,337.33Z" transform="translate(-52.1 24.15)"/><path class="cls-20" d="M554.93,337.32a25.74,25.74,0,0,1-13.58-5,14.22,14.22,0,0,1,26.78,3.5s-1.66,1-6.82,1.55A43.72,43.72,0,0,1,554.93,337.32Z" transform="translate(-52.1 24.15)"/><path class="cls-27" d="M677.33,318.6a18.47,18.47,0,0,1,5,4.39c0.14-16.44.53-42.77,0.65-56.3,0.18-20.15-13.48-26.16-13.48-26.16S669,226.68,659,216.18c-8.53-8.89-19-12.09-37.06-8.66-12.63,2.4-31.28,8.94-41.56-5.85-6.32-9.09-1.65-15.12-1.65-15.12a35,35,0,0,0-28.59,12.6c-10.55,12.49-9.33,29-9.33,29s-12.39,3-20.11,12.28-7.22,18.15-7.3,26.5c0,3.61-.45,36.86-0.64,55.83a44.72,44.72,0,0,1,4.51-4,24.44,24.44,0,0,1,4.85-2.48,89,89,0,0,1,6-25.13c10-25.69,26.47-36.6,26.47-36.6s12.79,10.8,32.3,4.67,22.92-19,22.92-19,27.47,0,46.65,28.1c11.09,16.26,15.38,34.29,16.87,48.69A14.32,14.32,0,0,1,677.33,318.6Z" transform="translate(-52.1 24.15)"/><line class="cls-28" x1="542.86" y1="422.84" x2="550.51" y2="422.87"/><line class="cls-29" x1="1086.45" y1="528.78" x2="2" y2="528.78"/><path class="cls-30" d="M881.3,474.36s-9,3-8.8,14.67a13.93,13.93,0,0,0,9.24,13.33l-124.09-.09s-12.09-2.31-11.82-14.49,11.82-13.42,11.82-13.42H881.3Z" transform="translate(-52.1 24.15)"/><polygon class="cls-31" points="765.67 429.83 760 430.82 764.4 455.01 770.07 453.98 765.67 429.83"/><rect class="cls-31" x="820.39" y="430.07" width="4.09" height="35.41" transform="matrix(0.98, -0.18, 0.18, 0.98, -119.02, 178.73)"/><polygon class="cls-31" points="763.52 480.82 758.21 481.75 752.27 447.96 753.69 440.93 757.57 446.97 763.52 480.82"/><path class="cls-31" d="M820.71,463.17l1.88,0.43s4.24-14.76,5.48-17.42,2.57-4,3.85-9.25c1-4.08.72-6.52,1.31-8.55s1.62-2.68,1.65-3.87a1.29,1.29,0,0,0-1-1.51l-2.14-.59a1.34,1.34,0,0,0-1.68.84c-0.55,1.15,0,1.93-.61,4.1s-1.72,3.23-3.26,8.47a32.55,32.55,0,0,0-1.49,9.62C824.59,448.22,820.71,463.17,820.71,463.17Z" transform="translate(-52.1 24.15)"/><path class="cls-31" d="M831.72,422.41l0.45-1.62s-0.73-1-.12-3.15c0.56-2,1.81-2.35,2.28-3.26s1.34-2.93,1.34-2.93l0.42,0.12s-0.3,2.19-.37,3.19,0.81,1.91.29,3.87c-0.61,2.33-1.71,2.75-1.71,2.75L833.86,423Z" transform="translate(-52.1 24.15)"/><polygon class="cls-32" points="762.39 430.42 765.67 429.83 770.07 453.98 769.05 454.17 775.46 489.37 773.22 489.77 762.39 430.42"/><line class="cls-33" x1="764.05" y1="430.19" x2="768.43" y2="454.28"/><line class="cls-33" x1="761.94" y1="430.6" x2="766.33" y2="454.68"/><rect class="cls-12" x="814.53" y="426.01" width="1.45" height="4.28" transform="translate(1641.93 727.47) rotate(169.68)"/><path class="cls-32" d="M835.18,413.86l-7.91,29.92,2,0a32.31,32.31,0,0,0,2.82-8c0.53-3.49.73-6.64,1.2-8s1.67-2.64,1.59-3.58a1.88,1.88,0,0,0-1-1.38l0.32-1.47a4.38,4.38,0,0,0,1.8-2.72C836.26,416.91,835.18,413.86,835.18,413.86Z" transform="translate(-52.1 24.15)"/><polygon class="cls-12" points="783.38 435.55 781.87 441.07 782.62 441.29 784.14 435.76 783.38 435.55"/><polyline class="cls-34" points="763.52 480.82 760.78 481.29 754.85 447.48 752.6 447.88 757.31 447.01"/><path class="cls-33" d="M804.37,423.81" transform="translate(-52.1 24.15)"/><polygon class="cls-33" points="753.37 443.64 754.9 443.39 753.71 441.77 753.37 443.64"/><circle class="cls-12" cx="782.24" cy="441.16" r="0.61"/><path class="cls-33" d="M820.77,463.2l1.88,0.43s4.24-14.76,5.48-17.42,2.57-4,3.85-9.25c1-4.08.72-6.52,1.31-8.55s1.62-2.68,1.65-3.87a1.29,1.29,0,0,0-1-1.51l-2.14-.59a1.34,1.34,0,0,0-1.68.84c-0.55,1.15,0,1.93-.61,4.1s-1.72,3.23-3.26,8.47a32.55,32.55,0,0,0-1.49,9.62C824.65,448.24,820.77,463.2,820.77,463.2Z" transform="translate(-52.1 24.15)"/><path class="cls-33" d="M831.78,422.44l0.45-1.62s-0.73-1-.12-3.15c0.56-2,1.81-2.35,2.28-3.26s1.34-2.93,1.34-2.93l0.42,0.12s-0.3,2.19-.37,3.19,0.81,1.91.29,3.87c-0.61,2.33-1.71,2.75-1.71,2.75L833.92,423Z" transform="translate(-52.1 24.15)"/><polygon class="cls-33" points="765.58 429.87 759.91 430.87 764.31 455.06 769.98 454.03 765.58 429.87"/><rect class="cls-33" x="820.3" y="430.12" width="4.09" height="35.41" transform="translate(-119.03 178.72) rotate(-10.32)"/><rect class="cls-35" x="752.75" y="461.54" width="28.59" height="35.54"/><path class="cls-21" d="M885.5,474.06c-35.52.07-120.71,0.25-125.36,0.19-6.76-.09-14.49,3-14.4,13.33s7.38,14.49,14.4,14.49,125.33-.27,125.33-0.27" transform="translate(-52.1 24.15)"/><polygon class="cls-36" points="731.8 517.48 742.85 517.48 742.85 537.15 737.28 533.03 731.8 537.09 731.8 517.48"/><line class="cls-37" x1="740.04" y1="509.45" x2="809.41" y2="509.45"/><polygon class="cls-30" points="729.32 514.15 729.1 518.2 747 517.75 746.18 514.87 729.32 514.15"/><line class="cls-37" x1="711.24" y1="518.38" x2="781.02" y2="518.38"/><line class="cls-37" x1="711.24" y1="509.45" x2="733.1" y2="509.45"/><line class="cls-37" x1="796.44" y1="518.38" x2="809.77" y2="518.38"/><line class="cls-37" x1="786.17" y1="518.38" x2="791.15" y2="518.41"/><rect class="cls-32" x="766.78" y="461.64" width="14.64" height="35.54"/><rect class="cls-14" x="752.79" y="461.55" width="28.59" height="35.54"/></svg>